<?xml version="1.0" encoding="UTF-8"?>
<svg id="Layer_1" data-name="Layer 1" xmlns="http://www.w3.org/2000/svg" viewBox="0 0 150 40">
  <defs>
    <style>
      .cls-1 {
        fill: #ff6149;
      }

      .cls-2, .cls-3 {
        fill: #4e4993;
      }

      .cls-3 {
        stroke: #4e4993;
        stroke-miterlimit: 10;
        stroke-width: .89px;
      }
    </style>
  </defs>
  <path class="cls-3" d="m51.77,24.47c-.41-.32-.43-.69-.4-1.01.16-1.65-.02-3.08-.55-4.38-1.42-3.45-4.05-5.39-8.04-5.93-.46-.06-.76-.23-.75-.84.02-1.34.01-2.71,0-4.03v-.65c0-.61-.3-.95-.8-.95-.1,0-.21.01-.32.04-.66.16-1.26.33-1.81.52-2.93,1-5.52,2.42-7.94,4.35-.21.16-.42.33-.62.51-3.56-3.53-8.89-5.07-14.09-3.37-2.3.75-3.99,2.23-5.25,4.19-1.13,1.76-2.99,2.9-5.06,3.14-4.19.48-4.69,3-3.87,6.36.97,3.93,3.99,6.17,8.07,6.22.97.01,1.95,0,3.12,0,0,1.11.07,2.25.04,3.38-.02.53.41.96.93.96.48,0,.89-.36.93-.84.12-1.29.04-2.62-.22-3.97.64-.24,1.26-.37,1.72-.7.07-.05.12-.1.17-.17.41-.51.11-1.3-.55-1.37-.08,0-.15,0-.22.02-2.23.8-4.51,1.13-6.87.93-3.2-.27-6.11-3.77-5.77-6.96.11-1.02.55-1.86,1.66-1.94,3.7-.27,6.09-2.32,8.29-5.2,2.74-3.59,6.83-3.54,10.77-2.52,1.86.48,3.56,1.56,4.95,3.01-.3.31-.59.62-.87.94-1.03,1.14-1.99,2.33-2.91,3.56-.82,1.1-1.63,2.18-2.06,3.5-.84,2.62-.48,6.07,1.81,7.85.87.68,1.95,1.07,3.04,1.14.52.03,1.01,0,1.5-.18.39-.14.93-.38,1.3-.06.27.24.41.59.52.92.15.43.26.89.38,1.35.11.4.5.65.91.57h.02c.51-.09.8-.64.59-1.11-.3-.68-.58-1.37-.84-2.08-.15-.41-.15-1.09.09-1.38,1.85-2.22,2.15-4.8,1.86-7.52-.29-2.79-1.34-5.28-2.9-7.3-.07-.1.3-.39.35-.44,1.07-.96,2.25-1.85,3.51-2.57s2.73-1.24,4.17-1.7c.28-.09.57.12.57.42v1.73c0,.9,0,1.79,0,2.69,0,.83.23,1.07,1.06,1.11.61.03,1.2.09,1.76.18,4.23.7,6.89,4.07,6.49,8.21-.13,1.31.21,2.13,1.17,2.81.68.48.55,1.09.4,1.52-.49,1.38-1.43,2.44-2.79,3.15-1.03.54-2.15.8-3.43.8-.57,0-1.16-.05-1.81-.15-.09-.01-.17-.02-.25-.02-.47,0-.77.24-.83.65-.04.28,0,.52.14.69.14.17.36.27.65.3.16.01.31.03.47.04.63.06,1.29.11,1.93.11.37,0,.7-.02,1.02-.06,3.01-.38,5.12-1.88,6.28-4.46.8-1.78.55-2.9-.87-4.01Zm-18.81-.7c-.12.73-.33,1.47-.65,2.12-.54,1.09-1.47,2.09-2.71,2.37-1.28.29-2.74-.13-3.66-1.06-.82-.84-1.19-2.04-1.15-3.21.05-1.69.93-3.03,1.72-4.47.63-1.15,2.49-3.19,4.02-4.78,1.9,2.63,2.91,5.98,2.43,9.03Z"/>
  <g>
    <g>
      <g>
        <path class="cls-1" d="m60.09,14.07c0-2.27-.13-2.77-.24-2.88-.28-.28-1.45,0-1.45-1.23,0-1.47,4.46-2.6,6.06-2.6.52,0,.61.17.61.65,0,.15.02.45.24.45.3,0,1.51-1.17,3.29-1.17,2.84,0,4.35,2.84,4.35,5.37,0,2.9-2.06,6-5.22,6-1.02,0-2.03-.54-2.23-.54-.3,0-.35.45-.35.69,0,1.64,1.34,1.13,1.34,2.19,0,1.21-1.97,1.36-2.81,1.36-2.9,0-5.17-1.06-5.17-2.16,0-.97.89-.61,1.28-1.45.22-.45.3-1.08.3-3.48v-1.19Zm5.93-3.57c-.78,0-1.04.32-1.04,4.26,0,.71.35.97,1.1.97,1.34,0,1.52-1.45,1.52-2.49s-.22-2.75-1.58-2.75Z"/>
        <path class="cls-1" d="m83.72,13.19c0,3.81,1.3,1.73,1.3,2.9,0,1.23-1.69,2.58-3.27,2.58-1.71,0-1.75-1.1-2.29-1.1-.26,0-.54.28-1.02.54-.48.28-1.13.56-2.12.56-1.8,0-3.59-.95-3.59-3.1,0-1.54,1.47-3.44,5.28-3.44.67,0,.97.04.97-.74,0-.71-.02-2.21-1.02-2.21-1.3,0-1.43,2.34-3.36,2.34-.69,0-1.21-.5-1.21-1.19,0-1.84,3.66-3.03,5.71-3.03,1.23,0,4.61.48,4.61,3.72v2.16Zm-6.49,1.9c0,.56.3,1.17.93,1.17.82,0,.89-.89.89-1.54,0-.48.02-1.02-.58-1.02-.74,0-1.23.69-1.23,1.39Z"/>
        <path class="cls-1" d="m95.87,14.44c-.15-.24-.39-.71-.71-.71-.45,0-.76.63-.95.97l-1.58,2.75c-.3.5-.67,1.15-1.34,1.15-.8,0-1.28-.87-1.64-1.47l-4.11-6.69c-.69-1.15-1.75-.48-1.75-1.58,0-1.39,3.31-1.49,4.31-1.49.84,0,3.46.02,3.46,1.3,0,.5-.41.69-.41.97,0,.37,1,2.29,1.54,2.29.39,0,1-1.13,1-1.43,0-1.04-1.34-1.04-1.34-1.84,0-.43.11-1.3,4.35-1.3.82,0,3.14-.04,3.14,1.15,0,.78-.69.84-.69,1.34,0,.43.82,2.12,1.3,2.12.65,0,1.47-1.97,1.47-2.12,0-.54-.61-.67-.61-1.39,0-1.08,1.93-1.1,2.64-1.1s2.64,0,2.64,1.08c0,1.21-1.32.35-2.29,2.16l-2.77,5.43c-.37.69-1.32,2.55-2.27,2.55-.84,0-1.86-1.75-2.25-2.38l-1.1-1.78Z"/>
        <path class="cls-1" d="m111.64,7.43c.39.07.74.15.89.15.22,0,.39-.07.58-.15.19-.06.39-.13.58-.13,1,0,1.99,1.99,1.99,2.88,0,.58-.5,1.02-1.06,1.02-1.23,0-1.93-1.71-2.88-1.71-.39,0-.78.32-.78.74,0,1.39,4.76,1.64,4.76,5,0,2.03-1.97,3.44-4.22,3.44-.43,0-1.06-.07-1.6-.15-.54-.06-1.02-.13-1.15-.13-.15,0-.28.02-.43.04-.13.02-.26.04-.41.04-.43,0-.65-.06-.95-.41-.54-.61-1.08-1.84-1.08-2.66,0-.56.19-1.02.82-1.02.95,0,1.82,2.14,3.03,2.14.43,0,.84-.22.84-.69,0-1.28-4.24-1.43-4.24-5,0-2.16,1.77-3.53,4-3.53.43,0,.89.04,1.3.13Z"/>
      </g>
      <g>
        <path class="cls-1" d="m60.09,14.07c0-2.27-.13-2.77-.24-2.88-.28-.28-1.45,0-1.45-1.23,0-1.47,4.46-2.6,6.06-2.6.52,0,.61.17.61.65,0,.15.02.45.24.45.3,0,1.51-1.17,3.29-1.17,2.84,0,4.35,2.84,4.35,5.37,0,2.9-2.06,6-5.22,6-1.02,0-2.03-.54-2.23-.54-.3,0-.35.45-.35.69,0,1.64,1.34,1.13,1.34,2.19,0,1.21-1.97,1.36-2.81,1.36-2.9,0-5.17-1.06-5.17-2.16,0-.97.89-.61,1.28-1.45.22-.45.3-1.08.3-3.48v-1.19Zm5.93-3.57c-.78,0-1.04.32-1.04,4.26,0,.71.35.97,1.1.97,1.34,0,1.52-1.45,1.52-2.49s-.22-2.75-1.58-2.75Z"/>
        <path class="cls-1" d="m83.72,13.19c0,3.81,1.3,1.73,1.3,2.9,0,1.23-1.69,2.58-3.27,2.58-1.71,0-1.75-1.1-2.29-1.1-.26,0-.54.28-1.02.54-.48.28-1.13.56-2.12.56-1.8,0-3.59-.95-3.59-3.1,0-1.54,1.47-3.44,5.28-3.44.67,0,.97.04.97-.74,0-.71-.02-2.21-1.02-2.21-1.3,0-1.43,2.34-3.36,2.34-.69,0-1.21-.5-1.21-1.19,0-1.84,3.66-3.03,5.71-3.03,1.23,0,4.61.48,4.61,3.72v2.16Zm-6.49,1.9c0,.56.3,1.17.93,1.17.82,0,.89-.89.89-1.54,0-.48.02-1.02-.58-1.02-.74,0-1.23.69-1.23,1.39Z"/>
        <path class="cls-1" d="m95.87,14.44c-.15-.24-.39-.71-.71-.71-.45,0-.76.63-.95.97l-1.58,2.75c-.3.5-.67,1.15-1.34,1.15-.8,0-1.28-.87-1.64-1.47l-4.11-6.69c-.69-1.15-1.75-.48-1.75-1.58,0-1.39,3.31-1.49,4.31-1.49.84,0,3.46.02,3.46,1.3,0,.5-.41.69-.41.97,0,.37,1,2.29,1.54,2.29.39,0,1-1.13,1-1.43,0-1.04-1.34-1.04-1.34-1.84,0-.43.11-1.3,4.35-1.3.82,0,3.14-.04,3.14,1.15,0,.78-.69.84-.69,1.34,0,.43.82,2.12,1.3,2.12.65,0,1.47-1.97,1.47-2.12,0-.54-.61-.67-.61-1.39,0-1.08,1.93-1.1,2.64-1.1s2.64,0,2.64,1.08c0,1.21-1.32.35-2.29,2.16l-2.77,5.43c-.37.69-1.32,2.55-2.27,2.55-.84,0-1.86-1.75-2.25-2.38l-1.1-1.78Z"/>
        <path class="cls-1" d="m111.64,7.43c.39.07.74.15.89.15.22,0,.39-.07.58-.15.19-.06.39-.13.58-.13,1,0,1.99,1.99,1.99,2.88,0,.58-.5,1.02-1.06,1.02-1.23,0-1.93-1.71-2.88-1.71-.39,0-.78.32-.78.74,0,1.39,4.76,1.64,4.76,5,0,2.03-1.97,3.44-4.22,3.44-.43,0-1.06-.07-1.6-.15-.54-.06-1.02-.13-1.15-.13-.15,0-.28.02-.43.04-.13.02-.26.04-.41.04-.43,0-.65-.06-.95-.41-.54-.61-1.08-1.84-1.08-2.66,0-.56.19-1.02.82-1.02.95,0,1.82,2.14,3.03,2.14.43,0,.84-.22.84-.69,0-1.28-4.24-1.43-4.24-5,0-2.16,1.77-3.53,4-3.53.43,0,.89.04,1.3.13Z"/>
      </g>
    </g>
    <g>
      <g>
        <path class="cls-2" d="m123.25,12.27v1.15h-1.89v5.94h-1.42v-5.94h-1.89v-1.15h5.2Z"/>
        <path class="cls-2" d="m125.33,18.97c-.56-.31-1-.74-1.32-1.29-.32-.55-.49-1.18-.49-1.87s.16-1.31.49-1.86c.32-.55.76-.98,1.32-1.29.55-.31,1.16-.47,1.83-.47s1.28.16,1.83.47c.55.31.99.74,1.31,1.29.32.55.48,1.17.48,1.86s-.16,1.32-.48,1.87c-.32.55-.76.98-1.31,1.29s-1.16.47-1.83.47-1.27-.16-1.83-.47Zm2.95-1.09c.32-.19.58-.47.76-.83s.27-.78.27-1.25-.09-.89-.27-1.24-.44-.63-.76-.82-.7-.28-1.13-.28-.8.09-1.13.28c-.33.19-.58.46-.77.82s-.27.77-.27,1.24.09.89.27,1.25.44.63.77.83c.33.19.71.29,1.13.29s.8-.1,1.13-.29Z"/>
      </g>
      <g>
        <path class="cls-2" d="m123.25,12.27v1.15h-1.89v5.94h-1.42v-5.94h-1.89v-1.15h5.2Z"/>
        <path class="cls-2" d="m125.33,18.97c-.56-.31-1-.74-1.32-1.29-.32-.55-.49-1.18-.49-1.87s.16-1.31.49-1.86c.32-.55.76-.98,1.32-1.29.55-.31,1.16-.47,1.83-.47s1.28.16,1.83.47c.55.31.99.74,1.31,1.29.32.55.48,1.17.48,1.86s-.16,1.32-.48,1.87c-.32.55-.76.98-1.31,1.29s-1.16.47-1.83.47-1.27-.16-1.83-.47Zm2.95-1.09c.32-.19.58-.47.76-.83s.27-.78.27-1.25-.09-.89-.27-1.24-.44-.63-.76-.82-.7-.28-1.13-.28-.8.09-1.13.28c-.33.19-.58.46-.77.82s-.27.77-.27,1.24.09.89.27,1.25.44.63.77.83c.33.19.71.29,1.13.29s.8-.1,1.13-.29Z"/>
      </g>
    </g>
    <g>
      <g>
        <path class="cls-1" d="m68.89,30.04c-.13-.21-.34-.63-.63-.63-.4,0-.67.56-.84.86l-1.4,2.43c-.27.44-.59,1.01-1.19,1.01-.71,0-1.13-.77-1.46-1.3l-3.64-5.92c-.61-1.02-1.55-.42-1.55-1.4,0-1.23,2.93-1.32,3.81-1.32.75,0,3.06.02,3.06,1.15,0,.44-.36.61-.36.86,0,.33.88,2.03,1.36,2.03.34,0,.88-1,.88-1.26,0-.92-1.19-.92-1.19-1.63,0-.38.1-1.15,3.85-1.15.73,0,2.78-.04,2.78,1.02,0,.69-.61.75-.61,1.19,0,.38.73,1.88,1.15,1.88.57,0,1.3-1.74,1.3-1.88,0-.48-.54-.59-.54-1.23,0-.96,1.7-.98,2.34-.98s2.34,0,2.34.96c0,1.07-1.17.31-2.03,1.92l-2.45,4.81c-.33.61-1.17,2.26-2.01,2.26-.75,0-1.65-1.55-1.99-2.11l-.98-1.57Z"/>
        <path class="cls-1" d="m89.95,30.65c0,1.63.94,1.23.94,1.97,0,1.11-2.45,1.09-3.16,1.09-.59,0-2.91,0-2.91-.98,0-.56.54-.54.69-1.51.11-.61.13-1.28.13-1.92,0-.96-.02-2.76-1.38-2.76-1.17,0-1.13,1-1.13,1.86v2.22c0,1.59.77,1.26.77,1.95,0,1.11-2.18,1.13-2.91,1.13-2.74,0-3.37-.57-3.37-1.17,0-.77.75-.42,1.07-1.67.23-.9.23-3.43.23-4.48,0-.86-.06-1.74-.08-2.6-.04-1.36-1.19-.88-1.19-1.78,0-1.53,4.98-1.93,5-1.93.57,0,.61.17.61.73l-.12,3.64c-.02.36-.04.98.46.98.57,0,.82-1.7,2.97-1.7,3.52,0,3.27,3.31,3.29,3.85l.08,3.08Z"/>
        <path class="cls-1" d="m96.14,29.96c0,2.26,1.13,1.44,1.13,2.45,0,1.3-2.43,1.3-3.29,1.3-3.29,0-3.43-.75-3.43-1.21,0-.69.79-.73,1.02-1.32.25-.67.29-3.45.08-4.16-.17-.67-1.15-.46-1.15-1.32,0-1.36,4.86-1.93,5.06-1.93.57,0,.59.44.59.84v5.34Zm-3.79-6.8c-.8,0-1.67-.36-1.67-1.3,0-1.26,2.53-1.78,3.5-1.78.77,0,1.86.25,1.86,1.21,0,1.49-2.6,1.88-3.7,1.88Z"/>
        <path class="cls-1" d="m102.23,23.83c.34.06.65.13.79.13.19,0,.34-.06.52-.13.17-.06.34-.11.52-.11.88,0,1.76,1.76,1.76,2.55,0,.52-.44.9-.94.9-1.09,0-1.7-1.51-2.55-1.51-.34,0-.69.29-.69.65,0,1.23,4.21,1.46,4.21,4.42,0,1.8-1.74,3.05-3.73,3.05-.38,0-.94-.06-1.42-.13-.48-.06-.9-.11-1.02-.11-.13,0-.25.02-.38.04-.11.02-.23.04-.36.04-.38,0-.57-.06-.84-.36-.48-.54-.96-1.63-.96-2.36,0-.5.17-.9.73-.9.84,0,1.61,1.9,2.68,1.9.38,0,.75-.19.75-.61,0-1.13-3.75-1.26-3.75-4.42,0-1.92,1.57-3.12,3.54-3.12.38,0,.79.04,1.15.11Z"/>
        <path class="cls-1" d="m112.55,30.59c-.08-.11-.54-.77-.73-.77-.21,0-.19.42-.19.54-.06,1.7.79,1.13.79,2.03,0,.54-.13,1.32-3.12,1.32-1.57,0-3.35.06-3.35-1.21,0-.92,1.01-.25,1.07-1.86.06-1.34.15-3.16.15-4v-2.74c0-1.55-1.47-.52-1.47-1.61,0-1.28,4.33-2.22,5.34-2.22.52,0,.56.31.54.73l-.1,4.06c-.04,1.23-.04,1.7.42,1.7.31,0,1.53-.65,1.53-.94,0-.27-.38-.42-.38-.8,0-1,1.95-1.05,2.62-1.05.79,0,2.87.02,2.87,1.21,0,.86-.71.46-1.86,1.17-.19.1-.94.48-.94.71,0,.48,2.24,3.24,2.6,3.68.86,1.07,1.92,1.05,1.92,1.86,0,.59-.44,1.11-1.92,1.11h-2.7c-.77,0-.86-.04-1.32-.63l-1.78-2.28Z"/>
        <path class="cls-1" d="m124.54,29.1c-.21,0-.52-.06-.52.27,0,.96,1.24,1.76,2.15,1.76,1.44,0,2.14-.86,2.55-.86s.75.59.75.96c0,1.47-2.7,2.55-4.42,2.55-3.45,0-5.23-2.49-5.23-4.96,0-2.95,2.51-5.09,5.38-5.09,3.26,0,4.69,2.51,4.69,3.94,0,1.26-.57,1.44-1.19,1.44h-4.16Zm1.67-2.41c0-.69-.42-1.23-1.13-1.23-.63,0-1.15.65-1.15,1.26,0,.69.65.54,1.15.54s1.13.11,1.13-.57Z"/>
        <path class="cls-1" d="m130.86,27.7c0-1.88-1.19-.82-1.19-1.99,0-1.51,4.48-1.93,4.65-1.93.73,0,.75.19.82.84.02.23,0,.67.33.67.46,0,.75-1.51,2.39-1.51,1.28,0,2.13.96,2.13,2.22s-1.09,2.3-2.36,2.3-1.59-1.09-2.09-1.09c-.54,0-.44,1.28-.44,1.63,0,.57.06,1.38.15,2.11.11.84,1.57.33,1.57,1.47,0,1.21-1.69,1.3-3.79,1.3-.88,0-3.49.04-3.49-1.28,0-.8.88-.8,1.09-1.47.15-.48.21-1.57.21-2.11v-1.15Z"/>
        <path class="cls-1" d="m144.88,23.83c.34.06.65.13.79.13.19,0,.34-.06.52-.13.17-.06.34-.11.52-.11.88,0,1.76,1.76,1.76,2.55,0,.52-.44.9-.94.9-1.09,0-1.7-1.51-2.55-1.51-.34,0-.69.29-.69.65,0,1.23,4.21,1.46,4.21,4.42,0,1.8-1.74,3.05-3.73,3.05-.38,0-.94-.06-1.42-.13-.48-.06-.9-.11-1.02-.11-.13,0-.25.02-.38.04-.11.02-.23.04-.36.04-.38,0-.57-.06-.84-.36-.48-.54-.96-1.63-.96-2.36,0-.5.17-.9.73-.9.84,0,1.61,1.9,2.68,1.9.38,0,.75-.19.75-.61,0-1.13-3.75-1.26-3.75-4.42,0-1.92,1.57-3.12,3.54-3.12.38,0,.79.04,1.15.11Z"/>
      </g>
      <g>
        <path class="cls-1" d="m68.89,30.04c-.13-.21-.34-.63-.63-.63-.4,0-.67.56-.84.86l-1.4,2.43c-.27.44-.59,1.01-1.19,1.01-.71,0-1.13-.77-1.46-1.3l-3.64-5.92c-.61-1.02-1.55-.42-1.55-1.4,0-1.23,2.93-1.32,3.81-1.32.75,0,3.06.02,3.06,1.15,0,.44-.36.61-.36.86,0,.33.88,2.03,1.36,2.03.34,0,.88-1,.88-1.26,0-.92-1.19-.92-1.19-1.63,0-.38.1-1.15,3.85-1.15.73,0,2.78-.04,2.78,1.02,0,.69-.61.75-.61,1.19,0,.38.73,1.88,1.15,1.88.57,0,1.3-1.74,1.3-1.88,0-.48-.54-.59-.54-1.23,0-.96,1.7-.98,2.34-.98s2.34,0,2.34.96c0,1.07-1.17.31-2.03,1.92l-2.45,4.81c-.33.61-1.17,2.26-2.01,2.26-.75,0-1.65-1.55-1.99-2.11l-.98-1.57Z"/>
        <path class="cls-1" d="m89.95,30.65c0,1.63.94,1.23.94,1.97,0,1.11-2.45,1.09-3.16,1.09-.59,0-2.91,0-2.91-.98,0-.56.54-.54.69-1.51.11-.61.13-1.28.13-1.92,0-.96-.02-2.76-1.38-2.76-1.17,0-1.13,1-1.13,1.86v2.22c0,1.59.77,1.26.77,1.95,0,1.11-2.18,1.13-2.91,1.13-2.74,0-3.37-.57-3.37-1.17,0-.77.75-.42,1.07-1.67.23-.9.23-3.43.23-4.48,0-.86-.06-1.74-.08-2.6-.04-1.36-1.19-.88-1.19-1.78,0-1.53,4.98-1.93,5-1.93.57,0,.61.17.61.73l-.12,3.64c-.02.36-.04.98.46.98.57,0,.82-1.7,2.97-1.7,3.52,0,3.27,3.31,3.29,3.85l.08,3.08Z"/>
        <path class="cls-1" d="m96.14,29.96c0,2.26,1.13,1.44,1.13,2.45,0,1.3-2.43,1.3-3.29,1.3-3.29,0-3.43-.75-3.43-1.21,0-.69.79-.73,1.02-1.32.25-.67.29-3.45.08-4.16-.17-.67-1.15-.46-1.15-1.32,0-1.36,4.86-1.93,5.06-1.93.57,0,.59.44.59.84v5.34Zm-3.79-6.8c-.8,0-1.67-.36-1.67-1.3,0-1.26,2.53-1.78,3.5-1.78.77,0,1.86.25,1.86,1.21,0,1.49-2.6,1.88-3.7,1.88Z"/>
        <path class="cls-1" d="m102.23,23.83c.34.06.65.13.79.13.19,0,.34-.06.52-.13.17-.06.34-.11.52-.11.88,0,1.76,1.76,1.76,2.55,0,.52-.44.9-.94.9-1.09,0-1.7-1.51-2.55-1.51-.34,0-.69.29-.69.65,0,1.23,4.21,1.46,4.21,4.42,0,1.8-1.74,3.05-3.73,3.05-.38,0-.94-.06-1.42-.13-.48-.06-.9-.11-1.02-.11-.13,0-.25.02-.38.04-.11.02-.23.04-.36.04-.38,0-.57-.06-.84-.36-.48-.54-.96-1.63-.96-2.36,0-.5.17-.9.73-.9.84,0,1.61,1.9,2.68,1.9.38,0,.75-.19.75-.61,0-1.13-3.75-1.26-3.75-4.42,0-1.92,1.57-3.12,3.54-3.12.38,0,.79.04,1.15.11Z"/>
        <path class="cls-1" d="m112.55,30.59c-.08-.11-.54-.77-.73-.77-.21,0-.19.42-.19.54-.06,1.7.79,1.13.79,2.03,0,.54-.13,1.32-3.12,1.32-1.57,0-3.35.06-3.35-1.21,0-.92,1.01-.25,1.07-1.86.06-1.34.15-3.16.15-4v-2.74c0-1.55-1.47-.52-1.47-1.61,0-1.28,4.33-2.22,5.34-2.22.52,0,.56.31.54.73l-.1,4.06c-.04,1.23-.04,1.7.42,1.7.31,0,1.53-.65,1.53-.94,0-.27-.38-.42-.38-.8,0-1,1.95-1.05,2.62-1.05.79,0,2.87.02,2.87,1.21,0,.86-.71.46-1.86,1.17-.19.1-.94.48-.94.71,0,.48,2.24,3.24,2.6,3.68.86,1.07,1.92,1.05,1.92,1.86,0,.59-.44,1.11-1.92,1.11h-2.7c-.77,0-.86-.04-1.32-.63l-1.78-2.28Z"/>
        <path class="cls-1" d="m124.54,29.1c-.21,0-.52-.06-.52.27,0,.96,1.24,1.76,2.15,1.76,1.44,0,2.14-.86,2.55-.86s.75.59.75.96c0,1.47-2.7,2.55-4.42,2.55-3.45,0-5.23-2.49-5.23-4.96,0-2.95,2.51-5.09,5.38-5.09,3.26,0,4.69,2.51,4.69,3.94,0,1.26-.57,1.44-1.19,1.44h-4.16Zm1.67-2.41c0-.69-.42-1.23-1.13-1.23-.63,0-1.15.65-1.15,1.26,0,.69.65.54,1.15.54s1.13.11,1.13-.57Z"/>
        <path class="cls-1" d="m130.86,27.7c0-1.88-1.19-.82-1.19-1.99,0-1.51,4.48-1.93,4.65-1.93.73,0,.75.19.82.84.02.23,0,.67.33.67.46,0,.75-1.51,2.39-1.51,1.28,0,2.13.96,2.13,2.22s-1.09,2.3-2.36,2.3-1.59-1.09-2.09-1.09c-.54,0-.44,1.28-.44,1.63,0,.57.06,1.38.15,2.11.11.84,1.57.33,1.57,1.47,0,1.21-1.69,1.3-3.79,1.3-.88,0-3.49.04-3.49-1.28,0-.8.88-.8,1.09-1.47.15-.48.21-1.57.21-2.11v-1.15Z"/>
        <path class="cls-1" d="m144.88,23.83c.34.06.65.13.79.13.19,0,.34-.06.52-.13.17-.06.34-.11.52-.11.88,0,1.76,1.76,1.76,2.55,0,.52-.44.9-.94.9-1.09,0-1.7-1.51-2.55-1.51-.34,0-.69.29-.69.65,0,1.23,4.21,1.46,4.21,4.42,0,1.8-1.74,3.05-3.73,3.05-.38,0-.94-.06-1.42-.13-.48-.06-.9-.11-1.02-.11-.13,0-.25.02-.38.04-.11.02-.23.04-.36.04-.38,0-.57-.06-.84-.36-.48-.54-.96-1.63-.96-2.36,0-.5.17-.9.73-.9.84,0,1.61,1.9,2.68,1.9.38,0,.75-.19.75-.61,0-1.13-3.75-1.26-3.75-4.42,0-1.92,1.57-3.12,3.54-3.12.38,0,.79.04,1.15.11Z"/>
      </g>
    </g>
  </g>
</svg>